<svg width="105" height="47" viewBox="0 0 105 47" fill="none" xmlns="http://www.w3.org/2000/svg">
<path d="M104.999 27.1985C105.029 19.6355 101.775 12.7218 95.4293 8.8481C93.4371 7.63064 91.194 6.90017 88.8993 6.50173C87.7556 6.30251 86.5972 6.19183 85.4388 6.11804C84.5312 6.06639 83.6311 6.16969 82.7235 6.07377C82.5907 6.05902 82.4505 6.03688 82.3546 5.94834C82.1849 5.78601 82.2439 5.51301 82.2882 5.28427C82.7751 3.08547 81.5577 1.04899 79.4917 0.289003C77.7799 -0.345551 75.736 0.0381313 74.7768 1.70568L53.962 37.7572L47.7271 26.9624L46.1555 24.2471L45.5799 23.251C44.8937 22.0631 43.6468 21.399 42.3703 21.399C41.7431 21.399 41.1086 21.5613 40.5257 21.8933C38.7548 22.919 38.1498 25.1768 39.168 26.9476L50.4719 44.6266C51.1655 45.8293 52.4346 46.4934 53.7259 46.4786H54.1833C55.4819 46.4934 56.7437 45.8293 57.4373 44.6266L63.2146 36.038C64.255 34.4959 65.2659 32.9612 66.1956 31.3453C66.38 32.2012 66.6235 33.0349 66.9187 33.8466C69.6045 41.1808 76.6436 46.4122 84.9075 46.4122C90.0135 46.4122 94.6546 44.4126 98.0856 41.1513V42.9738C98.0856 43.9257 98.4693 44.7889 99.0964 45.4087C99.7458 46.0581 100.653 46.4491 101.657 46.4196C103.524 46.3532 104.985 44.7889 104.985 42.9222V28.0102V27.1911L104.999 27.1985ZM96.2041 32.6586C92.4558 38.805 84.4353 40.7529 78.2816 37.0193C75.3228 35.2264 73.1978 32.3266 72.3862 28.962C71.5598 25.6048 72.1058 22.0557 73.9135 19.1116V19.0969C75.7065 16.1381 78.6063 14.0131 81.9709 13.2014C85.3281 12.375 88.8846 12.9211 91.836 14.7288C97.9823 18.4771 99.9376 26.4976 96.1967 32.6513L96.2041 32.6586Z" fill="url(#paint0_linear_75_6831)"/>
<path d="M29.6355 13.1572C27.2965 11.5708 24.5148 10.7001 21.6445 10.7001C19.0547 10.7001 16.5091 11.4085 14.3029 12.7587C11.0858 14.7067 8.78373 17.8573 7.90568 21.5097C7.0055 25.162 7.60316 29.021 9.56585 32.2233C12.96 37.7572 20.1393 39.8158 26.0569 37.4104C28.5508 36.3995 30.757 34.7763 32.7049 32.9169C33.7674 31.906 34.9037 30.7476 36.3721 30.6443C37.9953 30.5336 39.4784 31.8839 39.8769 33.4555C40.2753 35.0271 39.7736 36.7242 38.9103 38.104C37.7297 39.9781 36.0031 41.6162 34.1659 42.8336C31.0152 44.9218 27.2005 46.0507 23.4596 46.3753C22.8029 46.4344 22.1463 46.4639 21.4896 46.4639C20.5008 46.4639 19.5121 46.3975 18.5308 46.2573C18.4496 46.2425 18.3684 46.2351 18.2873 46.2204C18.2504 46.2204 18.2135 46.213 18.1766 46.2056H18.1545C17.6158 46.1171 17.0772 46.0138 16.5459 45.881C10.9604 44.5381 6.14221 41.0111 3.16866 36.097C0.1656 31.1977 -0.749336 25.2949 0.623071 19.7167C1.96596 14.1311 5.49291 9.31295 10.407 6.3394C20.6263 0.134054 33.9371 3.38061 40.1646 13.5851C40.1646 13.5851 40.172 13.5925 40.172 13.5999L40.4081 13.9836C41.3378 15.5109 40.873 17.5031 39.3677 18.4697L25.4002 27.3756C23.5334 28.5562 21.3494 28.807 19.3793 28.261C16.8706 27.5601 16.3984 24.2102 18.5898 22.8083L29.606 15.7839C30.5652 15.1715 30.5799 13.7843 29.6355 13.1424V13.1572Z" fill="url(#paint1_linear_75_6831)"/>
<defs>
<linearGradient id="paint0_linear_75_6831" x1="71.8401" y1="46.4786" x2="71.8401" y2="0.00861971" gradientUnits="userSpaceOnUse">
<stop stop-color="#E3E3E3"/>
<stop offset="0.46" stop-color="#E9E9E9"/>
<stop offset="0.99" stop-color="white"/>
</linearGradient>
<linearGradient id="paint1_linear_75_6831" x1="20.4418" y1="46.4786" x2="20.4418" y2="3.2109" gradientUnits="userSpaceOnUse">
<stop stop-color="#E3E3E3"/>
<stop offset="0.46" stop-color="#E9E9E9"/>
<stop offset="0.99" stop-color="white"/>
</linearGradient>
</defs>
</svg>
